#tb 0: 1/15
#tb 1: 1/11025
0,          0,          0,        1,   657600, 0xaf456809
1,          0,          0,    11025,    22050, 0x1740aaec
0,          1,          1,        1,   657600, 0xaf456809
0,          2,          2,        1,   657600, 0xaf456809
0,          3,          3,        1,   657600, 0x2dbe6889
0,          4,          4,        1,   657600, 0x2dbe6889
0,          5,          5,        1,   657600, 0x2dbe6889
0,          6,          6,        1,   657600, 0x2dbe6889
0,          7,          7,        1,   657600, 0x2dbe6889
0,          8,          8,        1,   657600, 0x2dbe6889
0,          9,          9,        1,   657600, 0x2dbe6889
0,         10,         10,        1,   657600, 0x2dbe6889
0,         11,         11,        1,   657600, 0x2dbe6889
0,         12,         12,        1,   657600, 0x2dbe6889
0,         13,         13,        1,   657600, 0x2dbe6889
0,         14,         14,        1,   657600, 0x2dbe6889
0,         15,         15,        1,   657600, 0x2dbe6889
1,      11025,      11025,    11025,    22050, 0x75ed6086
0,         16,         16,        1,   657600, 0x2dbe6889
0,         17,         17,        1,   657600, 0x2dbe6889
0,         18,         18,        1,   657600, 0x2dbe6889
0,         19,         19,        1,   657600, 0x2dbe6889
0,         20,         20,        1,   657600, 0x2dbe6889
0,         21,         21,        1,   657600, 0x92796e59
0,         22,         22,        1,   657600, 0x92796e59
0,         23,         23,        1,   657600, 0x92796e59
0,         24,         24,        1,   657600, 0x64cb6889
0,         25,         25,        1,   657600, 0x64cb6889
0,         26,         26,        1,   657600, 0x64cb6889
0,         27,         27,        1,   657600, 0x64cb6889
0,         28,         28,        1,   657600, 0x64cb6889
0,         29,         29,        1,   657600, 0x64cb6889
0,         30,         30,        1,   657600, 0x42036b71
1,      22050,      22050,    11025,    22050, 0xca52a4e9
0,         31,         31,        1,   657600, 0x42036b71
0,         32,         32,        1,   657600, 0x42036b71
0,         33,         33,        1,   657600, 0xc40a6889
0,         34,         34,        1,   657600, 0xc40a6889
0,         35,         35,        1,   657600, 0xc40a6889
0,         36,         36,        1,   657600, 0xaa6f7429
0,         37,         37,        1,   657600, 0xaa6f7429
0,         38,         38,        1,   657600, 0xaa6f7429
0,         39,         39,        1,   657600, 0x854172d9
0,         40,         40,        1,   657600, 0x854172d9
0,         41,         41,        1,   657600, 0x854172d9
0,         42,         42,        1,   657600, 0x22d10de0
0,         43,         43,        1,   657600, 0xa75f0d60
0,         44,         44,        1,   657600, 0x7a440be0
0,         45,         45,        1,   657600, 0x40095d50
1,      33075,      33075,    11025,    22050, 0xb306d419
0,         46,         46,        1,   657600, 0x40095d50
0,         47,         47,        1,   657600, 0x64766320
0,         48,         48,        1,   657600, 0x64766320
0,         49,         49,        1,   657600, 0x64766320
0,         50,         50,        1,   657600, 0x64766320
0,         51,         51,        1,   657600, 0x64766320
0,         52,         52,        1,   657600, 0x64766320
0,         53,         53,        1,   657600, 0x64766320
0,         54,         54,        1,   657600, 0x64766320
0,         55,         55,        1,   657600, 0x64766320
0,         56,         56,        1,   657600, 0x64766320
0,         57,         57,        1,   657600, 0xf51adc49
0,         58,         58,        1,   657600, 0xf51adc49
0,         59,         59,        1,   657600, 0xf51adc49
0,         60,         60,        1,   657600, 0xdd47af59
1,      44100,      44100,    11025,    22050, 0x8cbb9625
0,         61,         61,        1,   657600, 0xdd47af59
0,         62,         62,        1,   657600, 0xffa8acf1
0,         63,         63,        1,   657600, 0x5994b059
0,         64,         64,        1,   657600, 0x5994b059
0,         65,         65,        1,   657600, 0x5994b059
0,         66,         66,        1,   657600, 0x03ffae71
0,         67,         67,        1,   657600, 0x03ffae71
0,         68,         68,        1,   657600, 0x03ffae71
0,         69,         69,        1,   657600, 0xe33ab89e
0,         70,         70,        1,   657600, 0xe33ab89e
0,         71,         71,        1,   657600, 0xe33ab89e
0,         72,         72,        1,   657600, 0xbe37b549
0,         73,         73,        1,   657600, 0xbe37b549
0,         74,         74,        1,   657600, 0x1d395bf9
0,         75,         75,        1,   657600, 0x1d395bf9
1,      55125,      55125,    11025,    22050, 0x34a11f66
0,         76,         76,        1,   657600, 0x1d395bf9
0,         77,         77,        1,   657600, 0x1d395bf9
0,         78,         78,        1,   657600, 0x2ec36f37
0,         79,         79,        1,   657600, 0x2ec36f37
0,         80,         80,        1,   657600, 0xb04a6eb7
0,         81,         81,        1,   657600, 0x66610458
0,         82,         82,        1,   657600, 0x66610458
0,         83,         83,        1,   657600, 0xaf8901f0
0,         84,         84,        1,   657600, 0x3ae41c48
0,         85,         85,        1,   657600, 0x5b870b70
0,         86,         86,        1,   657600, 0x11490c60
0,         87,         87,        1,   657600, 0x70064801
0,         88,         88,        1,   657600, 0x80d54519
0,         89,         89,        1,   657600, 0xe8c942b1
0,         90,         90,        1,   657600, 0x830d8c24
1,      66150,      66150,    11025,    22050, 0x1ae81230
0,         91,         91,        1,   657600, 0x830d8c24
0,         92,         92,        1,   657600, 0x830d8c24
0,         93,         93,        1,   657600, 0xf3c4707c
0,         94,         94,        1,   657600, 0x6ace707c
0,         95,         95,        1,   657600, 0x6ace707c
0,         96,         96,        1,   657600, 0x6ace707c
0,         97,         97,        1,   657600, 0x6ace707c
0,         98,         98,        1,   657600, 0x6ace707c
0,         99,         99,        1,   657600, 0x5f461aae
0,        100,        100,        1,   657600, 0x5f461aae
0,        101,        101,        1,   657600, 0x221ceecf
0,        102,        102,        1,   657600, 0x221ceecf
0,        103,        103,        1,   657600, 0x221ceecf
0,        104,        104,        1,   657600, 0x221ceecf
0,        105,        105,        1,   657600, 0x221ceecf
1,      77175,      77175,    11025,    22050, 0x1217eeba
0,        106,        106,        1,   657600, 0x221ceecf
0,        107,        107,        1,   657600, 0x221ceecf
0,        108,        108,        1,   657600, 0x3bf6f39f
0,        109,        109,        1,   657600, 0x3bf6f39f
0,        110,        110,        1,   657600, 0x3bf6f39f
0,        111,        111,        1,   657600, 0xc2caeecf
0,        112,        112,        1,   657600, 0xc2caeecf
0,        113,        113,        1,   657600, 0xc2caeecf
0,        114,        114,        1,   657600, 0xc316d63e
0,        115,        115,        1,   657600, 0xc316d63e
0,        116,        116,        1,   657600, 0xc316d63e
0,        117,        117,        1,   657600, 0x41f6218d
0,        118,        118,        1,   657600, 0x41f6218d
0,        119,        119,        1,   657600, 0x41f6218d
0,        120,        120,        1,   657600, 0xff43ec36
1,      88200,      88200,    11025,    22050, 0x50e70baa
0,        121,        121,        1,   657600, 0x0b10eb16
0,        122,        122,        1,   657600, 0x0b10eb16
0,        123,        123,        1,   657600, 0xbdf41aa5
0,        124,        124,        1,   657600, 0xbdf41aa5
0,        125,        125,        1,   657600, 0xbdf41aa5
0,        126,        126,        1,   657600, 0xd502ca06
0,        127,        127,        1,   657600, 0xd502ca06
0,        128,        128,        1,   657600, 0xd502ca06
0,        129,        129,        1,   657600, 0x8446f89e
0,        130,        130,        1,   657600, 0x8446f89e
0,        131,        131,        1,   657600, 0x8446f89e
0,        132,        132,        1,   657600, 0x3d4ccf06
0,        133,        133,        1,   657600, 0x0897d1de
0,        134,        134,        1,   657600, 0x0897d1de
0,        135,        135,        1,   657600, 0x3e27e01e
1,      99225,      99225,    11025,    22050, 0xb19e89c0
0,        136,        136,        1,   657600, 0x3e27e01e
0,        137,        137,        1,   657600, 0x3e27e01e
0,        138,        138,        1,   657600, 0x3e27e01e
0,        139,        139,        1,   657600, 0x3e27e01e
0,        140,        140,        1,   657600, 0x3e27e01e
0,        141,        141,        1,   657600, 0xe51078a8
0,        142,        142,        1,   657600, 0xe51078a8
0,        143,        143,        1,   657600, 0xe9967a40
0,        144,        144,        1,   657600, 0xe9967a40
0,        145,        145,        1,   657600, 0xe9967a40
0,        146,        146,        1,   657600, 0xe9967a40
0,        147,        147,        1,   657600, 0xe9967a40
0,        148,        148,        1,   657600, 0xe9967a40
0,        149,        149,        1,   657600, 0xe9967a40
0,        150,        150,        1,   657600, 0x726cb6b8
1,     110250,     110250,    11025,    22050, 0x78526696
0,        151,        151,        1,   657600, 0x2960b6e8
0,        152,        152,        1,   657600, 0x2960b6e8
0,        153,        153,        1,   657600, 0x1637d6c8
0,        154,        154,        1,   657600, 0x6f2fd9b0
0,        155,        155,        1,   657600, 0x27a7d6c8
0,        156,        156,        1,   657600, 0xe855d6c8
0,        157,        157,        1,   657600, 0xe855d6c8
0,        158,        158,        1,   657600, 0xe855d6c8
0,        159,        159,        1,   657600, 0x1a8ad6c8
0,        160,        160,        1,   657600, 0x9c11d648
0,        161,        161,        1,   657600, 0x6136d648
0,        162,        162,        1,   657600, 0xdfa0d6c8
0,        163,        163,        1,   657600, 0xdfa0d6c8
0,        164,        164,        1,   657600, 0xdfa0d6c8
0,        165,        165,        1,   657600, 0xdfa0d6c8
1,     121275,     121275,    11025,    22050, 0x48e3bb21
0,        166,        166,        1,   657600, 0xdfa0d6c8
0,        167,        167,        1,   657600, 0xdfa0d6c8
0,        168,        168,        1,   657600, 0xdfa0d6c8
0,        169,        169,        1,   657600, 0xdfa0d6c8
0,        170,        170,        1,   657600, 0xdfa0d6c8
0,        171,        171,        1,   657600, 0x125cd9b0
0,        172,        172,        1,   657600, 0x125cd9b0
0,        173,        173,        1,   657600, 0x8a7ed6c8
0,        174,        174,        1,   657600, 0x09a6d9b0
0,        175,        175,        1,   657600, 0x09a6d9b0
0,        176,        176,        1,   657600, 0x09a6d9b0
0,        177,        177,        1,   657600, 0x85e87a68
0,        178,        178,        1,   657600, 0x85e87a68
0,        179,        179,        1,   657600, 0x85e87a68
0,        180,        180,        1,   657600, 0xb0a141a8
1,     132300,     132300,    11025,    22050, 0xbc32204a
0,        181,        181,        1,   657600, 0xb0a141a8
0,        182,        182,        1,   657600, 0xf3333bd8
0,        183,        183,        1,   657600, 0xea090688
0,        184,        184,        1,   657600, 0xa017fe41
0,        185,        185,        1,   657600, 0xa017fe41
0,        186,        186,        1,   657600, 0x32e93bd8
0,        187,        187,        1,   657600, 0x7fe640c0
0,        188,        188,        1,   657600, 0x7fe640c0
0,        189,        189,        1,   657600, 0xcd8995b2
0,        190,        190,        1,   657600, 0x84278a92
0,        191,        191,        1,   657600, 0x84278a92
0,        192,        192,        1,   657600, 0xf1d2874a
0,        193,        193,        1,   657600, 0xf1d2874a
0,        194,        194,        1,   657600, 0xf1d2874a
0,        195,        195,        1,   657600, 0xa58d6742
1,     143325,     143325,    11025,    22050, 0xdf6f1e46
0,        196,        196,        1,   657600, 0xa58d6742
0,        197,        197,        1,   657600, 0xa58d6742
0,        198,        198,        1,   657600, 0xb0cd11bb
0,        199,        199,        1,   657600, 0xb0cd11bb
0,        200,        200,        1,   657600, 0xc55610bb
0,        201,        201,        1,   657600, 0x4ee1168b
0,        202,        202,        1,   657600, 0x61c513a3
0,        203,        203,        1,   657600, 0xd26410bb
0,        204,        204,        1,   657600, 0xe7c410bb
0,        205,        205,        1,   657600, 0x444a0dd3
0,        206,        206,        1,   657600, 0x444a0dd3
0,        207,        207,        1,   657600, 0x97ac10bb
0,        208,        208,        1,   657600, 0x97ac10bb
0,        209,        209,        1,   657600, 0xe8b30dd3
0,        210,        210,        1,   657600, 0x3d0c10bb
1,     154350,     154350,    11025,    22050, 0x4c91da9d
0,        211,        211,        1,   657600, 0x8d2b0dd3
0,        212,        212,        1,   657600, 0x8d2b0dd3
0,        213,        213,        1,   657600, 0xa5760dd3
0,        214,        214,        1,   657600, 0xa5760dd3
0,        215,        215,        1,   657600, 0xa5760dd3
0,        216,        216,        1,   657600, 0x31a30dd3
0,        217,        217,        1,   657600, 0x31a30dd3
0,        218,        218,        1,   657600, 0x31a30dd3
0,        219,        219,        1,   657600, 0x31a30dd3
0,        220,        220,        1,   657600, 0x31a30dd3
0,        221,        221,        1,   657600, 0x31a30dd3
0,        222,        222,        1,   657600, 0x31a30dd3
0,        223,        223,        1,   657600, 0x31a30dd3
0,        224,        224,        1,   657600, 0x31a30dd3
